<svg width="204" height="204" viewBox="0 0 204 204" fill="none" xmlns="http://www.w3.org/2000/svg">
<circle opacity="0.12" cx="104.893" cy="100.543" r="90.9468" fill="url(#paint0_linear_5004_1400)"/>
<circle cx="184.595" cy="68.5107" r="4.5293" stroke="white" stroke-width="1.82808"/>
<circle cx="180.294" cy="124.079" r="3.42764" stroke="white" stroke-width="1.82808"/>
<g filter="url(#filter0_f_5004_1400)">
<circle cx="127.468" cy="173.169" r="5.44334" fill="white"/>
</g>
<g filter="url(#filter1_f_5004_1400)">
<path d="M74.6732 173.208L77.4371 180.678L84.9067 183.441L77.4371 186.205L74.6732 193.675L71.9092 186.205L64.4397 183.441L71.9092 180.678L74.6732 173.208Z" fill="white"/>
</g>
<path d="M142.06 28.8567C143.08 29.1299 143.421 30.4042 142.675 31.1505L137.637 36.1881C136.891 36.9344 135.617 36.5929 135.344 35.5735L133.5 28.692C133.226 27.6725 134.159 26.7396 135.179 27.0128L142.06 28.8567Z" fill="white"/>
<g filter="url(#filter2_f_5004_1400)">
<path d="M37.1493 52.5547L38.7893 56.9867L43.2213 58.6267L38.7893 60.2667L37.1493 64.6988L35.5093 60.2667L31.0773 58.6267L35.5093 56.9867L37.1493 52.5547Z" fill="white"/>
</g>
<circle cx="31.1218" cy="112.012" r="3.70071" stroke="white" stroke-width="1.82808"/>
<path d="M22.6592 128.421L24.9527 134.619L31.1508 136.913L24.9527 139.206L22.6592 145.404L20.3657 139.206L14.1676 136.913L20.3657 134.619L22.6592 128.421Z" fill="white"/>
<g clip-path="url(#clip0_5004_1400)">
<path fill-rule="evenodd" clip-rule="evenodd" d="M102 165C85.2656 165 69.2695 158.355 57.457 146.543C45.6445 134.73 39 118.734 39 102C39 85.2656 45.6445 69.2695 57.457 57.457C69.2695 45.6445 85.2656 39 102 39C118.734 39 134.73 45.6445 146.543 57.457C158.355 69.2695 165 85.2656 165 102C165 118.734 158.355 134.73 146.543 146.543C134.73 158.355 118.734 165 102 165ZM102 41.9531C68.7773 41.9531 41.9531 68.7773 41.9531 102C41.9531 135.223 68.7773 162.047 102 162.047C135.223 162.047 162.047 135.223 162.047 102C162.047 68.7773 135.223 41.9531 102 41.9531Z" fill="#DFDFDF"/>
<path fill-rule="evenodd" clip-rule="evenodd" d="M102 157.371C87.2344 157.371 73.207 151.711 62.8711 141.129C52.2891 130.793 46.6289 116.766 46.6289 102C46.6289 87.2344 52.2891 73.207 62.8711 62.8711C73.207 52.2891 87.2344 46.6289 102 46.6289C116.766 46.6289 130.793 52.2891 141.129 62.8711C151.711 73.207 157.371 87.2344 157.371 102C157.371 116.766 151.711 130.793 141.129 141.129C130.793 151.711 116.766 157.371 102 157.371ZM102 49.582C73.207 49.582 49.582 73.207 49.582 102C49.582 130.793 73.207 154.418 102 154.418C130.793 154.418 154.418 130.793 154.418 102C154.418 73.207 130.793 49.582 102 49.582Z" fill="#DFDFDF"/>
<path fill-rule="evenodd" clip-rule="evenodd" d="M137.191 144.328C136.945 144.328 136.453 144.082 136.207 143.836L60.1641 67.793C59.6719 67.3008 59.6719 66.3164 60.1641 65.8242C60.9023 64.8398 61.8867 63.8555 62.8711 62.8711C63.8555 61.8867 64.8398 60.9023 65.8242 60.1641C66.3164 59.6719 67.3008 59.6719 67.793 60.1641L143.836 136.207C144.328 136.699 144.328 137.684 143.836 138.176C143.098 139.16 142.113 140.145 141.129 141.129C140.145 142.113 139.16 143.098 138.176 143.836C137.93 144.082 137.684 144.328 137.191 144.328ZM63.3633 66.5625L137.438 140.637C137.93 140.145 138.422 139.652 139.16 139.16C139.652 138.422 140.145 137.93 140.637 137.438L66.5625 63.3633C66.0703 63.8555 65.5781 64.3477 64.8398 64.8398C64.3477 65.5781 63.8555 66.0703 63.3633 66.5625Z" fill="#DFDFDF"/>
<path fill-rule="evenodd" clip-rule="evenodd" d="M127.594 134.484H70.9922C70.0078 134.484 69.5156 133.992 69.5156 133.008V76.4062C69.5156 75.4219 70.0078 74.9297 70.9922 74.9297C71.7305 74.9297 72.4688 75.4219 72.4688 76.4062V131.531H127.594C128.578 131.531 129.07 132.27 129.07 133.008C129.07 133.992 128.578 134.484 127.594 134.484Z" fill="#DFDFDF"/>
<path fill-rule="evenodd" clip-rule="evenodd" d="M91.9102 134.484H82.5586C81.8203 134.484 81.082 133.992 81.082 133.008V110.121C81.082 109.383 81.8203 108.645 82.5586 108.645H91.9102C92.6484 108.645 93.3867 109.383 93.3867 110.121V133.008C93.3867 133.992 92.6484 134.484 91.9102 134.484ZM84.0352 131.531H90.4336V111.598H84.0352V131.531Z" fill="#DFDFDF"/>
<path fill-rule="evenodd" clip-rule="evenodd" d="M109.875 134.484H100.77C100.031 134.484 99.293 133.992 99.293 133.008V106.184C99.293 105.445 100.031 104.707 100.77 104.707C101.508 104.707 102.246 105.445 102.246 106.184V131.531H108.398V115.289C108.398 114.551 109.137 113.812 109.875 113.812C110.859 113.812 111.352 114.551 111.352 115.289V133.008C111.352 133.992 110.859 134.484 109.875 134.484ZM109.875 105.938C109.137 105.938 108.398 105.445 108.398 104.461V99.0469H102.984C102.246 99.0469 101.508 98.5547 101.508 97.5703C101.508 96.832 102.246 96.0938 102.984 96.0938H109.875C110.859 96.0938 111.352 96.832 111.352 97.5703V104.461C111.352 105.445 110.859 105.938 109.875 105.938Z" fill="#DFDFDF"/>
<path fill-rule="evenodd" clip-rule="evenodd" d="M127.594 134.484H118.98C117.996 134.484 117.504 133.992 117.504 133.008V124.395C117.504 123.41 117.996 122.918 118.98 122.918C119.719 122.918 120.457 123.41 120.457 124.395V131.531H127.594C128.578 131.531 129.07 132.27 129.07 133.008C129.07 133.992 128.578 134.484 127.594 134.484ZM128.086 124.148C127.348 124.148 126.609 123.41 126.609 122.672V87.7266H120.457V113.32C120.457 114.305 119.719 114.797 118.98 114.797C117.996 114.797 117.504 114.305 117.504 113.32V86.25C117.504 85.2656 117.996 84.7734 118.98 84.7734H128.086C128.824 84.7734 129.562 85.2656 129.562 86.25V122.672C129.562 123.41 128.824 124.148 128.086 124.148Z" fill="#DFDFDF"/>
<path fill-rule="evenodd" clip-rule="evenodd" d="M78.6211 97.5705C78.1289 97.5705 77.6367 97.3244 77.3906 96.8322C76.8984 96.094 77.1445 95.1096 77.8828 94.6174L85.5117 90.4338C86.25 89.9416 86.9882 90.1877 87.4804 90.926C87.9726 91.6643 87.7265 92.4025 86.9882 92.8947L79.3593 97.3244C79.1132 97.3244 78.8671 97.5705 78.6211 97.5705ZM93.1406 89.2033C92.6484 89.2033 92.1562 88.9572 91.9101 88.465C91.4179 87.7268 91.664 86.7424 92.4023 86.2502L115.289 73.2072C115.781 72.715 116.766 72.9611 117.258 73.6994C117.504 74.4377 117.258 75.4221 116.766 75.6682L93.8789 88.9572C93.6328 88.9572 93.3867 89.2033 93.1406 89.2033Z" fill="#DFDFDF"/>
<path fill-rule="evenodd" clip-rule="evenodd" d="M113.32 82.3125C113.074 82.3125 112.828 82.3125 112.582 82.0664C111.844 81.8203 111.598 81.082 111.844 80.0977L113.812 75.668L108.891 74.9297C108.152 74.6836 107.414 73.9453 107.66 73.207C107.66 72.4688 108.398 71.9766 109.383 71.9766L116.027 72.9609C116.519 72.9609 117.012 73.4531 117.258 73.6992C117.504 74.1914 117.504 74.6836 117.258 74.9297L114.551 81.3281C114.305 81.8203 113.812 82.3125 113.32 82.3125Z" fill="#DFDFDF"/>
</g>
<g filter="url(#filter3_f_5004_1400)">
<circle cx="148.583" cy="119.619" r="17.4187" fill="#666666"/>
</g>
<circle cx="148.583" cy="116.135" r="17.4187" fill="#666666"/>
<path d="M147.395 118.744L146.801 110.929L146.687 107.525H150.457L150.343 110.929L149.749 118.744H147.395ZM148.583 124.846C147.395 124.846 146.55 124 146.55 122.812C146.55 121.624 147.418 120.801 148.583 120.801C149.726 120.801 150.594 121.624 150.594 122.812C150.594 124 149.726 124.846 148.583 124.846Z" fill="white"/>
<defs>
<filter id="filter0_f_5004_1400" x="120.196" y="165.898" width="14.5429" height="14.5429" filterUnits="userSpaceOnUse" color-interpolation-filters="sRGB">
<feFlood flood-opacity="0" result="BackgroundImageFix"/>
<feBlend mode="normal" in="SourceGraphic" in2="BackgroundImageFix" result="shape"/>
<feGaussianBlur stdDeviation="0.914038" result="effect1_foregroundBlur_5004_1400"/>
</filter>
<filter id="filter1_f_5004_1400" x="62.6116" y="171.38" width="24.1231" height="24.123" filterUnits="userSpaceOnUse" color-interpolation-filters="sRGB">
<feFlood flood-opacity="0" result="BackgroundImageFix"/>
<feBlend mode="normal" in="SourceGraphic" in2="BackgroundImageFix" result="shape"/>
<feGaussianBlur stdDeviation="0.914038" result="effect1_foregroundBlur_5004_1400"/>
</filter>
<filter id="filter2_f_5004_1400" x="29.2492" y="50.7266" width="15.8002" height="15.8007" filterUnits="userSpaceOnUse" color-interpolation-filters="sRGB">
<feFlood flood-opacity="0" result="BackgroundImageFix"/>
<feBlend mode="normal" in="SourceGraphic" in2="BackgroundImageFix" result="shape"/>
<feGaussianBlur stdDeviation="0.914038" result="effect1_foregroundBlur_5004_1400"/>
</filter>
<filter id="filter3_f_5004_1400" x="117.454" y="88.4896" width="62.2586" height="62.2581" filterUnits="userSpaceOnUse" color-interpolation-filters="sRGB">
<feFlood flood-opacity="0" result="BackgroundImageFix"/>
<feBlend mode="normal" in="SourceGraphic" in2="BackgroundImageFix" result="shape"/>
<feGaussianBlur stdDeviation="6.85529" result="effect1_foregroundBlur_5004_1400"/>
</filter>
<linearGradient id="paint0_linear_5004_1400" x1="104.893" y1="9.5957" x2="104.893" y2="191.489" gradientUnits="userSpaceOnUse">
<stop stop-color="white" stop-opacity="0"/>
<stop offset="1" stop-color="#A5A5A5"/>
</linearGradient>
<clipPath id="clip0_5004_1400">
<rect width="126" height="126" fill="white" transform="translate(39 39)"/>
</clipPath>
</defs>
</svg>
