<svg width="24" height="25" viewBox="0 0 24 25" fill="none" xmlns="http://www.w3.org/2000/svg">
<path opacity="0.4" d="M20.4 16.83C20.12 17.58 19.53 18.15 18.76 18.41C17.68 18.77 16.57 19.04 15.45 19.23C15.34 19.25 15.23 19.2701 15.12 19.2801C14.94 19.3101 14.76 19.33 14.58 19.35C14.36 19.3801 14.13 19.4 13.9 19.42C13.27 19.47 12.65 19.5 12.02 19.5C11.38 19.5 10.74 19.47 10.11 19.41C9.83996 19.39 9.57996 19.3601 9.31996 19.32C9.16996 19.3 9.01996 19.2801 8.87996 19.26C8.76996 19.24 8.65996 19.23 8.54996 19.21C7.43996 19.03 6.33996 18.76 5.26996 18.4C4.46996 18.13 3.85996 17.56 3.58996 16.83C3.31996 16.11 3.41996 15.27 3.84996 14.55L4.97996 12.67C5.21996 12.26 5.43996 11.47 5.43996 10.99V9.13005C5.43996 5.50005 8.38996 2.55005 12.02 2.55005C15.64 2.55005 18.59 5.50005 18.59 9.13005V10.99C18.59 11.47 18.81 12.26 19.06 12.67L20.19 14.55C20.6 15.25 20.68 16.07 20.4 16.83Z" fill="currentColor"/>
<path d="M12 11.26C11.58 11.26 11.24 10.92 11.24 10.5V7.40001C11.24 6.98001 11.58 6.64001 12 6.64001C12.42 6.64001 12.76 6.98001 12.76 7.40001V10.5C12.75 10.92 12.41 11.26 12 11.26Z" fill="currentColor"/>
<path d="M14.8301 20.51C14.4101 21.67 13.3001 22.5 12.0001 22.5C11.2101 22.5 10.4301 22.18 9.88005 21.61C9.56005 21.31 9.32005 20.91 9.18005 20.5C9.31005 20.52 9.44005 20.53 9.58005 20.55C9.81005 20.58 10.0501 20.61 10.2901 20.63C10.8601 20.68 11.4401 20.71 12.0201 20.71C12.5901 20.71 13.1601 20.68 13.7201 20.63C13.9301 20.61 14.1401 20.6 14.3401 20.57C14.5001 20.55 14.6601 20.53 14.8301 20.51Z" fill="currentColor"/>
</svg>
